{
    "asset" : {
        "generator" : "Khronos glTF Blender I/O v1.0.5",
        "version" : "2.0"
    },
    "scene" : 0,
    "scenes" : [
        {
            "name" : "Scene",
            "nodes" : [
                0,
                1,
                2,
                3,
                4,
                5,
                6
            ]
        }
    ],
    "nodes" : [
        {
            "mesh" : 0,
            "name" : "node_id8_mesh_id9",
            "rotation" : [
                0.7071068286895752,
                0,
                0,
                0.7071067094802856
            ]
        },
        {
            "mesh" : 1,
            "name" : "node_id11_mesh_id12",
            "rotation" : [
                0.7071068286895752,
                0,
                0,
                0.7071067094802856
            ]
        },
        {
            "mesh" : 2,
            "name" : "node_id15_mesh_id16",
            "rotation" : [
                0.7071068286895752,
                0,
                0,
                0.7071067094802856
            ]
        },
        {
            "mesh" : 3,
            "name" : "node_id18_mesh_id19",
            "rotation" : [
                0.7071068286895752,
                0,
                0,
                0.7071067094802856
            ]
        },
        {
            "mesh" : 4,
            "name" : "node_id21_mesh_id22",
            "rotation" : [
                0.7071068286895752,
                0,
                0,
                0.7071067094802856
            ]
        },
        {
            "mesh" : 5,
            "name" : "node_id24_mesh_id25",
            "rotation" : [
                0.7071068286895752,
                0,
                0,
                0.7071067094802856
            ]
        },
        {
            "mesh" : 6,
            "name" : "node_id27_mesh_id28",
            "rotation" : [
                0.7071068286895752,
                0,
                0,
                0.7071067094802856
            ]
        }
    ],
    "materials" : [
        {
            "doubleSided" : true,
            "name" : "Chesterfield",
            "pbrMetallicRoughness" : {
                "baseColorFactor" : [
                    0.0066145011223852634,
                    0.0066145011223852634,
                    0.0066145011223852634,
                    1
                ],
                "metallicFactor" : 0,
                "roughnessFactor" : 0.23181818425655365
            }
        },
        {
            "doubleSided" : true,
            "name" : "Material_40",
            "pbrMetallicRoughness" : {
                "baseColorFactor" : [
                    0.4313730001449585,
                    0.450980007648468,
                    0.47058799862861633,
                    1
                ],
                "metallicFactor" : 1,
                "roughnessFactor" : 0.5528574585914612
            }
        },
        {
            "doubleSided" : true,
            "name" : "Material_41",
            "pbrMetallicRoughness" : {
                "baseColorFactor" : [
                    0.8980389833450317,
                    0.8980389833450317,
                    0,
                    1
                ],
                "metallicFactor" : 1,
                "roughnessFactor" : 0.5528574585914612
            }
        },
        {
            "doubleSided" : true,
            "name" : "Material_42",
            "pbrMetallicRoughness" : {
                "baseColorFactor" : [
                    0.4313730001449585,
                    0.450980007648468,
                    0.47058799862861633,
                    1
                ],
                "metallicFactor" : 1,
                "roughnessFactor" : 0.5528574585914612
            }
        },
        {
            "doubleSided" : true,
            "name" : "Material_43",
            "pbrMetallicRoughness" : {
                "baseColorFactor" : [
                    0.5882350206375122,
                    0.6274510025978088,
                    0.6705880165100098,
                    1
                ],
                "metallicFactor" : 1,
                "roughnessFactor" : 0.5528574585914612
            }
        },
        {
            "doubleSided" : true,
            "name" : "Material_44",
            "pbrMetallicRoughness" : {
                "baseColorFactor" : [
                    0.4313730001449585,
                    0.450980007648468,
                    0.47058799862861633,
                    1
                ],
                "metallicFactor" : 1,
                "roughnessFactor" : 0.5528574585914612
            }
        }
    ],
    "meshes" : [
        {
            "name" : "node_id8_mesh_id9",
            "primitives" : [
                {
                    "attributes" : {
                        "POSITION" : 0,
                        "NORMAL" : 1,
                        "TEXCOORD_0" : 2
                    },
                    "indices" : 3,
                    "material" : 0
                }
            ]
        },
        {
            "name" : "node_id11_mesh_id12",
            "primitives" : [
                {
                    "attributes" : {
                        "POSITION" : 4,
                        "NORMAL" : 5,
                        "TEXCOORD_0" : 6
                    },
                    "indices" : 7,
                    "material" : 0
                }
            ]
        },
        {
            "name" : "node_id15_mesh_id16",
            "primitives" : [
                {
                    "attributes" : {
                        "POSITION" : 8,
                        "NORMAL" : 9
                    },
                    "indices" : 10,
                    "material" : 1
                }
            ]
        },
        {
            "name" : "node_id18_mesh_id19",
            "primitives" : [
                {
                    "attributes" : {
                        "POSITION" : 11,
                        "NORMAL" : 12
                    },
                    "indices" : 13,
                    "material" : 2
                }
            ]
        },
        {
            "name" : "node_id21_mesh_id22",
            "primitives" : [
                {
                    "attributes" : {
                        "POSITION" : 14,
                        "NORMAL" : 15
                    },
                    "indices" : 16,
                    "material" : 3
                }
            ]
        },
        {
            "name" : "node_id24_mesh_id25",
            "primitives" : [
                {
                    "attributes" : {
                        "POSITION" : 17,
                        "NORMAL" : 18
                    },
                    "indices" : 19,
                    "material" : 4
                }
            ]
        },
        {
            "name" : "node_id27_mesh_id28",
            "primitives" : [
                {
                    "attributes" : {
                        "POSITION" : 20,
                        "NORMAL" : 21
                    },
                    "indices" : 22,
                    "material" : 5
                }
            ]
        }
    ],
    "accessors" : [
        {
            "bufferView" : 0,
            "componentType" : 5126,
            "count" : 25884,
            "max" : [
                0.11326500028371811,
                0.18605999648571014,
                0.1128930002450943
            ],
            "min" : [
                -0.2612780034542084,
                -0.019564000889658928,
                -0.06157200038433075
            ],
            "type" : "VEC3"
        },
        {
            "bufferView" : 1,
            "componentType" : 5126,
            "count" : 25884,
            "type" : "VEC3"
        },
        {
            "bufferView" : 2,
            "componentType" : 5126,
            "count" : 25884,
            "type" : "VEC2"
        },
        {
            "bufferView" : 3,
            "componentType" : 5123,
            "count" : 85878,
            "type" : "SCALAR"
        },
        {
            "bufferView" : 4,
            "componentType" : 5126,
            "count" : 22550,
            "max" : [
                0.0977260023355484,
                0.13945700228214264,
                0.030083000659942627
            ],
            "min" : [
                -0.2612699866294861,
                -0.039868999272584915,
                -0.11436399817466736
            ],
            "type" : "VEC3"
        },
        {
            "bufferView" : 5,
            "componentType" : 5126,
            "count" : 22550,
            "type" : "VEC3"
        },
        {
            "bufferView" : 6,
            "componentType" : 5126,
            "count" : 22550,
            "type" : "VEC2"
        },
        {
            "bufferView" : 7,
            "componentType" : 5123,
            "count" : 73815,
            "type" : "SCALAR"
        },
        {
            "bufferView" : 8,
            "componentType" : 5126,
            "count" : 2001,
            "max" : [
                0.2080419957637787,
                0.09026999771595001,
                0.034081000834703445
            ],
            "min" : [
                -0.012432999908924103,
                -0.00076299998909235,
                -0.04747600108385086
            ],
            "type" : "VEC3"
        },
        {
            "bufferView" : 9,
            "componentType" : 5126,
            "count" : 2001,
            "type" : "VEC3"
        },
        {
            "bufferView" : 10,
            "componentType" : 5123,
            "count" : 5844,
            "type" : "SCALAR"
        },
        {
            "bufferView" : 11,
            "componentType" : 5126,
            "count" : 2518,
            "max" : [
                0.027633000165224075,
                0.06689199805259705,
                -0.0021230001002550125
            ],
            "min" : [
                -0.012129999697208405,
                0.017199000343680382,
                -0.052319999784231186
            ],
            "type" : "VEC3"
        },
        {
            "bufferView" : 12,
            "componentType" : 5126,
            "count" : 2518,
            "type" : "VEC3"
        },
        {
            "bufferView" : 13,
            "componentType" : 5123,
            "count" : 7488,
            "type" : "SCALAR"
        },
        {
            "bufferView" : 14,
            "componentType" : 5126,
            "count" : 870,
            "max" : [
                0.2518160045146942,
                0.10223200172185898,
                0.028402000665664673
            ],
            "min" : [
                0.1562040001153946,
                0.04591599851846695,
                -0.03595000132918358
            ],
            "type" : "VEC3"
        },
        {
            "bufferView" : 15,
            "componentType" : 5126,
            "count" : 870,
            "type" : "VEC3"
        },
        {
            "bufferView" : 16,
            "componentType" : 5123,
            "count" : 2544,
            "type" : "SCALAR"
        },
        {
            "bufferView" : 17,
            "componentType" : 5126,
            "count" : 314,
            "max" : [
                0.06574500352144241,
                0.02892399951815605,
                0.01081900019198656
            ],
            "min" : [
                0.048448000103235245,
                0.005452000070363283,
                -0.012476000003516674
            ],
            "type" : "VEC3"
        },
        {
            "bufferView" : 18,
            "componentType" : 5126,
            "count" : 314,
            "type" : "VEC3"
        },
        {
            "bufferView" : 19,
            "componentType" : 5123,
            "count" : 912,
            "type" : "SCALAR"
        },
        {
            "bufferView" : 20,
            "componentType" : 5126,
            "count" : 13868,
            "max" : [
                0.2561909854412079,
                0.11001800000667572,
                0.03697099909186363
            ],
            "min" : [
                0.1500770002603531,
                0.03719799965620041,
                -0.04255300015211105
            ],
            "type" : "VEC3"
        },
        {
            "bufferView" : 21,
            "componentType" : 5126,
            "count" : 13868,
            "type" : "VEC3"
        },
        {
            "bufferView" : 22,
            "componentType" : 5123,
            "count" : 41412,
            "type" : "SCALAR"
        }
    ],
    "bufferViews" : [
        {
            "buffer" : 0,
            "byteLength" : 310608,
            "byteOffset" : 0
        },
        {
            "buffer" : 0,
            "byteLength" : 310608,
            "byteOffset" : 310608
        },
        {
            "buffer" : 0,
            "byteLength" : 207072,
            "byteOffset" : 621216
        },
        {
            "buffer" : 0,
            "byteLength" : 171756,
            "byteOffset" : 828288
        },
        {
            "buffer" : 0,
            "byteLength" : 270600,
            "byteOffset" : 1000044
        },
        {
            "buffer" : 0,
            "byteLength" : 270600,
            "byteOffset" : 1270644
        },
        {
            "buffer" : 0,
            "byteLength" : 180400,
            "byteOffset" : 1541244
        },
        {
            "buffer" : 0,
            "byteLength" : 147630,
            "byteOffset" : 1721644
        },
        {
            "buffer" : 0,
            "byteLength" : 24012,
            "byteOffset" : 1869276
        },
        {
            "buffer" : 0,
            "byteLength" : 24012,
            "byteOffset" : 1893288
        },
        {
            "buffer" : 0,
            "byteLength" : 11688,
            "byteOffset" : 1917300
        },
        {
            "buffer" : 0,
            "byteLength" : 30216,
            "byteOffset" : 1928988
        },
        {
            "buffer" : 0,
            "byteLength" : 30216,
            "byteOffset" : 1959204
        },
        {
            "buffer" : 0,
            "byteLength" : 14976,
            "byteOffset" : 1989420
        },
        {
            "buffer" : 0,
            "byteLength" : 10440,
            "byteOffset" : 2004396
        },
        {
            "buffer" : 0,
            "byteLength" : 10440,
            "byteOffset" : 2014836
        },
        {
            "buffer" : 0,
            "byteLength" : 5088,
            "byteOffset" : 2025276
        },
        {
            "buffer" : 0,
            "byteLength" : 3768,
            "byteOffset" : 2030364
        },
        {
            "buffer" : 0,
            "byteLength" : 3768,
            "byteOffset" : 2034132
        },
        {
            "buffer" : 0,
            "byteLength" : 1824,
            "byteOffset" : 2037900
        },
        {
            "buffer" : 0,
            "byteLength" : 166416,
            "byteOffset" : 2039724
        },
        {
            "buffer" : 0,
            "byteLength" : 166416,
            "byteOffset" : 2206140
        },
        {
            "buffer" : 0,
            "byteLength" : 82824,
            "byteOffset" : 2372556
        }
    ],
    "buffers" : [
        {
            "byteLength" : 2455380,
            "uri" : "data:application/octet-stream;base64,"
        }
    ]
}
